<svg width="9" height="16" viewBox="0 0 9 16" fill="none" xmlns="http://www.w3.org/2000/svg">
<path d="M1.17423 6.87L0.206234 3.625C1.2549 3.141 2.30357 2.66067 3.35223 2.184C4.40823 1.7 5.46057 1.216 6.50923 0.732L6.34423 4.472C5.48623 4.868 4.62457 5.26767 3.75923 5.671C2.90123 6.067 2.03957 6.46667 1.17423 6.87ZM4.29823 16C4.29823 15.2227 4.29823 14.471 4.29823 13.745C4.29823 13.019 4.29823 12.1977 4.29823 11.281V7.013C4.29823 6.27233 4.29823 5.53533 4.29823 4.802C4.29823 4.06133 4.29823 3.32067 4.29823 2.58L6.50923 0.732L8.55523 0.842C8.55523 1.72933 8.55523 2.613 8.55523 3.493C8.55523 4.36567 8.55523 5.24567 8.55523 6.133V11.281C8.55523 12.1977 8.55523 13.019 8.55523 13.745C8.55523 14.471 8.55523 15.2227 8.55523 16H4.29823Z" fill="#DEC377"/>
</svg>
