<svg width="12" height="16" viewBox="0 0 12 16" fill="none" xmlns="http://www.w3.org/2000/svg">
<path d="M0.531367 16.001V13.185C0.905367 12.8696 1.27937 12.558 1.65337 12.25C2.02737 11.942 2.40137 11.634 2.77537 11.326C3.64803 10.6 4.39603 9.92898 5.01937 9.31298C5.65003 8.68964 6.13403 8.08831 6.47137 7.50898C6.8087 6.92964 6.97737 6.34664 6.97737 5.75998C6.97737 5.19531 6.81237 4.76998 6.48237 4.48398C6.1597 4.19064 5.67203 4.04398 5.01937 4.04398C4.6747 4.04398 4.3227 4.08798 3.96337 4.17598C3.60403 4.26398 3.2447 4.38131 2.88537 4.52798C2.52603 4.67464 2.17037 4.84698 1.81837 5.04498C1.46637 5.23564 1.12537 5.44464 0.795367 5.67198L0.443367 1.66798C0.788034 1.51398 1.16937 1.37098 1.58737 1.23898C2.00537 1.09964 2.44903 0.974976 2.91837 0.864976C3.3877 0.754976 3.87537 0.670643 4.38137 0.611976C4.88737 0.545976 5.4007 0.512975 5.92137 0.512975C7.0947 0.512975 8.0847 0.699975 8.89137 1.07398C9.70537 1.44064 10.3177 1.97598 10.7284 2.67998C11.1464 3.37664 11.3554 4.21264 11.3554 5.18798C11.3554 5.93598 11.2124 6.68031 10.9264 7.42098C10.6404 8.15431 10.193 8.87664 9.58437 9.58798C8.98303 10.2993 8.20937 11.0033 7.26337 11.7L5.25037 13.207L4.75537 12.393H7.30737C8.00403 12.393 8.7007 12.393 9.39737 12.393C10.094 12.393 10.787 12.393 11.4764 12.393V16.001H0.531367Z" fill="#DEC377"/>
</svg>
